<?xml version="1.0" standalone="no"?>
<!DOCTYPE svg PUBLIC "-//W3C//DTD SVG 20010904//EN"
 "http://www.w3.org/TR/2001/REC-SVG-20010904/DTD/svg10.dtd">
<svg version="1.0" xmlns="http://www.w3.org/2000/svg"
 width="1280.000000pt" height="720.000000pt" viewBox="0 0 1280.000000 720.000000"
 preserveAspectRatio="xMidYMid meet">

<g transform="translate(0.000000,720.000000) scale(0.100000,-0.100000)"
fill="#000000" stroke="none">
<path d="M10940 4290 c-11 -7 -7 -10 18 -10 20 0 31 4 27 10 -8 13 -26 13 -45
0z"/>
<path d="M11487 4273 c-4 -3 -7 -14 -7 -23 0 -13 12 -19 41 -24 23 -4 54 -15
68 -25 14 -9 51 -28 81 -40 30 -13 66 -30 79 -38 21 -13 25 -13 40 1 15 15 12
20 -39 66 -30 27 -62 49 -70 50 -9 0 -33 9 -55 20 -38 19 -124 28 -138 13z"/>
<path d="M10693 4235 c-15 -13 -23 -25 -16 -25 7 0 25 11 40 25 15 13 23 25
16 25 -7 0 -25 -11 -40 -25z"/>
<path d="M11430 4246 c0 -9 7 -16 16 -16 17 0 14 22 -4 28 -7 2 -12 -3 -12
-12z"/>
<path d="M10875 4239 c-27 -5 -59 -14 -70 -19 -11 -5 -29 -10 -40 -12 -14 -2
-21 -13 -25 -37 -3 -20 -13 -39 -25 -45 -11 -6 -43 -26 -71 -43 -28 -18 -58
-33 -66 -33 -9 0 -23 -11 -32 -25 -9 -14 -25 -25 -34 -25 -10 0 -43 -18 -72
-40 -61 -46 -70 -48 -70 -19 0 11 -5 29 -10 40 -7 13 -7 25 0 38 17 32 -6 34
-52 5 -24 -15 -47 -33 -53 -39 -5 -7 -21 -15 -35 -19 -21 -5 -70 -62 -70 -81
0 -14 23 -2 44 22 14 16 25 22 29 15 4 -6 -4 -19 -18 -30 -14 -11 -25 -23 -25
-26 0 -4 -11 -19 -25 -34 -28 -31 -31 -42 -11 -42 22 0 66 44 66 66 0 17 1 17
18 1 16 -17 15 -19 -23 -51 -22 -19 -37 -37 -33 -41 4 -4 -21 -35 -54 -69 -48
-47 -63 -57 -66 -44 -2 10 6 31 17 47 12 16 21 36 21 45 0 9 9 20 21 24 18 7
19 10 6 20 -12 11 -20 6 -46 -25 -17 -21 -31 -42 -31 -47 0 -5 -10 -18 -22
-30 -13 -12 -30 -31 -38 -42 -8 -12 -43 -60 -76 -106 -90 -124 -141 -288 -132
-424 2 -37 2 -62 0 -56 -2 6 -9 9 -16 6 -7 -3 -19 2 -26 11 -19 23 -26 19 -39
-27 -7 -24 -23 -61 -35 -83 -29 -54 -136 -405 -136 -448 0 -7 -12 -38 -26 -68
-16 -32 -30 -83 -35 -126 -4 -40 -13 -82 -20 -94 -6 -13 -13 -56 -16 -98 -2
-41 -13 -100 -23 -131 -11 -30 -28 -82 -40 -114 -11 -33 -20 -72 -20 -87 0
-15 -33 -97 -74 -181 -40 -84 -79 -173 -86 -198 -6 -25 -18 -57 -26 -71 -22
-42 -27 -129 -14 -239 8 -75 8 -106 0 -114 -11 -11 -23 0 -33 29 -3 6 -16 6
-37 -2 -29 -11 -36 -10 -53 5 -10 9 -26 30 -34 45 l-15 29 -22 -21 c-12 -12
-28 -21 -36 -21 -7 0 -18 -8 -25 -17 -7 -9 -21 -18 -33 -20 -32 -4 -112 -62
-161 -115 -14 -16 -32 -28 -40 -28 -8 0 -29 -11 -47 -25 -18 -14 -39 -25 -47
-25 -15 0 -137 -124 -137 -139 0 -10 -48 -71 -109 -141 -59 -66 -113 -145
-149 -215 -41 -79 -82 -178 -82 -197 0 -11 -4 -27 -9 -36 -4 -9 -11 -36 -15
-60 l-6 -42 2375 0 2375 0 0 568 c0 528 -1 569 -17 583 -10 9 -34 38 -53 64
-49 66 -98 115 -116 115 -8 0 -24 21 -35 48 -20 44 -20 50 -6 92 11 35 15 104
16 309 1 145 4 268 7 272 10 16 5 347 -7 442 -6 50 -19 112 -29 137 -10 25
-35 90 -55 145 -20 55 -50 128 -66 163 -17 35 -34 74 -39 88 -5 13 -14 24 -20
24 -5 0 -10 7 -10 15 0 9 -11 27 -24 40 -14 13 -27 33 -31 44 -8 27 -35 36
-35 11 0 -10 5 -22 10 -25 17 -10 11 -81 -8 -105 -23 -28 -36 -21 -63 33 -30
57 -88 147 -118 179 -22 25 -23 30 -12 52 8 13 10 30 6 37 -6 9 -1 10 18 6 30
-8 87 2 87 15 0 5 -9 19 -20 31 -12 12 -49 77 -83 146 -33 68 -73 136 -88 152
-14 15 -24 31 -21 34 3 3 -2 13 -11 23 -9 9 -36 42 -60 72 -24 31 -53 56 -65
58 -15 2 -22 10 -22 25 0 24 -78 119 -150 182 -25 22 -49 46 -53 53 -4 6 -12
12 -17 12 -19 0 -10 -23 17 -46 15 -13 24 -27 19 -31 -4 -4 -17 4 -28 20 -11
15 -28 27 -38 27 -11 0 -31 18 -47 43 -20 29 -37 43 -55 45 -25 3 -26 1 -25
-42 1 -25 4 -46 7 -46 3 0 25 -18 50 -40 54 -48 46 -57 -42 -50 -62 5 -66 8
-53 43 5 12 2 17 -9 17 -9 0 -16 5 -16 10 0 6 -12 15 -26 21 -24 9 -26 22 -3
25 5 1 12 2 17 3 18 4 -89 59 -143 73 -144 39 -248 47 -360 27z m-595 -368 c0
-12 -20 -25 -27 -18 -7 7 6 27 18 27 5 0 9 -4 9 -9z m1166 -116 c4 -9 19 -15
35 -15 32 0 60 -33 65 -76 1 -14 7 -31 14 -39 6 -7 8 -25 4 -39 -5 -20 -2 -26
10 -26 10 0 16 -8 16 -22 0 -12 8 -30 17 -40 20 -22 43 -84 43 -116 0 -15 26
-49 80 -101 44 -44 80 -83 80 -88 0 -5 13 -22 28 -39 47 -49 67 -85 96 -174
16 -47 43 -115 61 -151 65 -128 89 -266 88 -504 -1 -184 -12 -256 -58 -360 -7
-16 -16 -43 -19 -58 -7 -31 -29 -32 -34 -1 -2 10 -14 28 -26 39 -13 11 -32 40
-44 65 -12 25 -38 58 -57 73 -33 26 -38 27 -53 14 -36 -31 -81 -48 -101 -37
-11 5 -29 10 -41 10 -12 0 -34 9 -49 19 -15 11 -47 26 -70 34 -48 17 -100 51
-161 106 -34 30 -41 42 -36 59 4 12 13 22 20 22 7 0 18 11 24 25 10 21 8 29
-12 52 -30 36 -66 100 -66 117 0 7 -7 19 -15 26 -22 18 -18 38 7 42 12 2 28
13 34 26 14 29 51 55 65 47 5 -4 9 -19 7 -33 -3 -24 1 -27 42 -35 39 -8 42
-11 27 -22 -37 -27 -9 -34 40 -10 24 12 42 13 89 5 83 -13 142 -27 121 -29
-12 -1 -17 -7 -15 -18 3 -16 14 -18 83 -15 96 4 125 19 125 64 0 23 -12 43
-45 79 -25 26 -45 53 -45 58 0 21 -82 52 -148 57 -36 3 -71 8 -76 13 -16 13
-217 23 -251 13 -40 -12 -55 -5 -55 24 0 13 -6 24 -12 24 -19 -1 -105 -66
-122 -92 -38 -59 -71 -283 -46 -313 5 -6 11 -39 15 -75 4 -36 10 -78 15 -95 4
-16 11 -55 14 -85 5 -53 4 -57 -22 -72 -15 -9 -46 -19 -69 -23 -37 -6 -45 -3
-73 24 -18 17 -41 33 -51 36 -11 4 -19 12 -19 18 -1 16 -39 -34 -40 -50 0 -8
-14 -13 -38 -13 -62 0 -80 34 -40 77 l21 23 22 -30 c24 -32 35 -30 35 6 0 13
4 25 9 28 15 9 23 89 10 97 -16 9 -88 -16 -114 -41 -33 -31 -76 -43 -101 -29
-31 16 -48 7 -68 -35 -17 -37 -130 -140 -166 -151 -11 -4 -31 -16 -43 -28 -13
-12 -32 -27 -43 -33 -17 -10 -17 -13 -4 -29 8 -10 13 -29 12 -44 -2 -14 4 -35
13 -46 15 -20 15 -20 36 8 11 15 44 43 72 62 61 40 95 73 143 138 37 49 66 60
83 30 16 -30 113 -81 174 -92 33 -6 87 -24 120 -41 34 -16 84 -37 111 -47 27
-10 49 -22 49 -28 0 -18 -47 -35 -95 -35 -26 0 -59 -5 -74 -10 -21 -8 -40 -6
-85 10 -103 35 -295 24 -437 -25 -8 -3 5 -24 37 -57 27 -29 61 -70 75 -90 54
-80 72 -100 116 -127 25 -15 63 -34 85 -41 22 -7 50 -22 62 -33 15 -13 46 -23
95 -29 128 -17 240 -20 251 -9 6 6 34 11 62 11 28 0 56 5 63 12 8 8 14 5 23
-15 7 -15 18 -27 24 -27 15 0 59 56 69 88 4 12 14 22 22 22 8 0 13 3 11 8 -9
14 15 117 29 125 8 4 14 14 14 21 0 7 16 28 36 46 34 30 35 34 20 46 -27 19
-18 68 14 72 14 2 33 11 43 20 18 16 20 15 42 -10 12 -14 30 -28 40 -30 29 -5
37 -55 20 -123 -27 -109 -113 -265 -223 -404 -23 -29 -42 -58 -42 -64 0 -8 -3
-8 -8 1 -13 20 -41 3 -62 -37 -40 -75 -68 -93 -186 -121 -49 -12 -108 -28
-132 -36 -25 -8 -85 -14 -145 -14 -56 0 -110 -1 -119 -1 -10 0 -55 11 -100 25
-91 28 -113 45 -202 164 -37 48 -53 62 -73 62 -14 0 -41 11 -58 25 -35 26
-108 123 -144 190 -11 22 -34 63 -51 90 -17 28 -36 61 -42 75 -34 78 -43 102
-64 175 -30 110 -39 131 -64 148 -12 8 -38 46 -57 84 -33 63 -35 72 -29 131 5
50 4 64 -8 68 -8 3 -19 20 -25 37 -14 47 -22 168 -15 221 l7 47 22 -21 c19
-18 30 -45 51 -117 11 -40 34 4 79 152 50 165 81 237 143 333 22 35 49 84 58
110 10 26 21 52 25 57 4 6 16 33 27 62 25 66 64 115 142 178 34 28 81 65 103
84 23 18 53 38 67 44 14 6 32 16 40 23 40 32 239 124 289 134 31 7 63 16 72
20 9 5 35 9 58 8 27 0 49 6 62 18 19 17 22 17 49 2 16 -9 38 -14 50 -11 13 4
32 -2 49 -15 l28 -21 28 29 c18 19 24 33 19 42 -17 27 -15 57 6 68 16 9 22 8
26 -5 3 -8 13 -15 21 -15 10 0 13 6 9 16 -3 9 -4 20 0 25 8 14 24 11 30 -6z
m345 -125 c39 -70 55 -118 46 -138 -6 -12 -13 -22 -16 -22 -9 0 -57 110 -64
148 -6 28 -4 33 10 30 9 -2 20 -10 24 -18z m216 -166 c-4 -4 -14 1 -22 12 -22
29 -18 41 7 17 12 -13 19 -26 15 -29z m-2097 -750 c0 -23 -17 -24 -37 -1 -27
32 -19 51 13 31 13 -9 24 -22 24 -30z m1585 15 c-56 -11 -87 -11 -80 1 3 6 32
9 63 9 57 -1 57 -1 17 -10z m-714 -960 c12 -6 18 -17 15 -25 -3 -8 -1 -14 4
-14 6 0 10 4 10 9 0 28 132 33 245 11 57 -11 93 -35 108 -72 5 -10 9 -9 17 5
12 19 50 23 67 6 8 -8 14 -5 24 12 6 13 17 27 23 31 29 19 36 -37 8 -72 -16
-20 -21 -21 -40 -9 -19 12 -24 11 -45 -9 -13 -12 -30 -22 -39 -22 -9 0 -21 -7
-28 -15 -9 -11 -37 -14 -121 -14 -59 0 -111 4 -114 9 -4 6 -23 10 -44 10 -30
0 -40 5 -51 25 -14 26 -34 33 -45 15 -9 -15 -25 -12 -31 5 -4 8 -20 30 -36 47
-21 23 -26 34 -17 37 8 2 25 12 38 22 28 22 27 22 52 8z m-1511 -283 c0 -2 -7
-7 -16 -10 -8 -3 -12 -2 -9 4 6 10 25 14 25 6z"/>
<path d="M10559 2976 c-2 -3 -29 -6 -59 -7 -120 -4 -263 -52 -268 -89 -3 -20
-1 -21 29 -15 18 4 52 18 76 30 59 32 158 42 215 22 76 -27 288 -42 295 -20 6
18 -55 44 -152 64 -91 19 -128 23 -136 15z"/>
<path d="M11540 2960 c-170 -8 -224 -23 -247 -70 -11 -23 -10 -26 13 -33 16
-6 51 -3 98 8 100 22 252 8 328 -31 49 -25 53 -25 85 -10 18 9 33 20 33 25 0
5 -17 30 -37 55 -35 41 -80 68 -107 64 -6 0 -81 -4 -166 -8z"/>
<path d="M10539 2790 c-80 -10 -148 -39 -197 -85 -20 -19 -40 -35 -44 -35 -4
0 -14 -13 -22 -29 -13 -24 -13 -31 -1 -47 13 -19 15 -18 57 3 31 16 63 23 113
25 89 3 225 -18 244 -36 20 -21 7 -43 -28 -51 -52 -11 -34 -25 32 -25 78 0 91
8 82 49 -7 31 -6 31 33 31 41 0 57 16 46 44 -3 8 4 16 18 19 13 4 29 20 36 37
12 27 12 34 -5 63 -14 23 -27 32 -49 34 -164 9 -260 10 -315 3z m116 -29 c33
-7 24 -9 -50 -9 -59 0 -83 2 -70 8 25 11 69 11 120 1z"/>
<path d="M10968 2548 c-2 -34 2 -71 9 -88 7 -16 21 76 15 98 -7 20 -22 14 -24
-10z"/>
<path d="M11430 2513 c-48 -8 -53 -12 -40 -28 8 -9 30 -15 56 -15 43 0 43 0
32 25 -6 14 -14 24 -17 24 -3 -1 -17 -4 -31 -6z"/>
<path d="M10861 2446 l-22 -23 25 -5 c29 -6 51 14 42 37 -8 21 -19 19 -45 -9z"/>
<path d="M11585 2460 c-19 -7 -18 -8 5 -13 42 -10 123 -3 127 11 5 14 -98 16
-132 2z"/>
<path d="M11661 2397 c-9 -11 -8 -17 4 -27 8 -7 15 -18 15 -25 0 -20 20 -23
57 -10 50 17 62 33 39 51 -11 8 -31 13 -45 13 -14 -1 -33 1 -42 5 -9 4 -21 1
-28 -7z"/>
<path d="M9937 2343 c-13 -12 -7 -40 13 -58 20 -18 20 -17 20 12 0 30 -21 59
-33 46z"/>
<path d="M11751 2237 c-12 -15 -5 -27 16 -27 7 0 13 9 13 20 0 23 -13 26 -29
7z"/>
<path d="M11472 1465 c-32 -34 -29 -69 5 -47 15 10 34 60 25 66 -4 2 -18 -6
-30 -19z"/>
<path d="M11150 1290 c-9 -16 -8 -22 5 -26 21 -8 39 10 32 30 -9 22 -24 20
-37 -4z"/>
<path d="M12195 3310 c3 -5 11 -10 16 -10 6 0 7 5 4 10 -3 6 -11 10 -16 10 -6
0 -7 -4 -4 -10z"/>
</g>
</svg>
